,
Brought to you by  http://www.scenetime.com/signup.php
 
 Hottest scene tracker on the net !!!   
 
No fake torrents from scenebalance 
shame on those who comment fake before downloading my torrents

    seed back for speed


 



...................................NFO:.................................................[img]http://noob.hu/2011/05/27/red_riding_hood_poster_02.jpg[img]                                        
 

                  ::::::::::::  EP1C Presents  ::::::::::::

::File:: Red.Riding.Hood.2011.BRRip.AC3.XViD-EP1C

::Video Source:: Red Riding Hood 2011 720p BluRay x264-Felony

::Language:::::: English
::IMDB:::::::::: http://www.imdb.com/title/tt1486185/
Set in a medieval village that is haunted by a werewolf, a young girl 
falls for an orphaned woodcutter, much to her family's displeasure.

::Specs:::::::::

Format                           : AVI
Format/Info                      : Audio Video Interleave
File size                        : 1.37 GiB
Duration                         : 1h 40mn
Overall bit rate                 : 1 954 Kbps
Writing application              : VirtualDubMod 1.5.10.2 (build 2540/release)
Writing library                  : VirtualDubMod build 2540/release

Video
ID                               : 0
Format                           : MPEG-4 Visual
Format profile                   : Advanced Simple@L5
Format settings, BVOP            : Yes
Format settings, QPel            : No
Format settings, GMC             : No warppoints
Format settings, Matrix          : Default (H.263)
Muxing mode                      : Packed bitstream
Codec ID                         : XVID
Codec ID/Hint                    : XviD
Duration                         : 1h 40mn
Bit rate                         : 1 496 Kbps
Width                            : 720 pixels
Height                           : 304 pixels
Display aspect ratio             : 2.35:1
Frame rate                       : 23.976 fps
Color space                      : YUV
Chroma subsampling               : 4:2:0
Bit depth                        : 8 bits
Scan type                        : Progressive
Bits/(Pixel*Frame)               : 0.285
Stream size                      : 1.05 GiB (77%)
Writing library                  : XviD 58

Audio
ID                               : 1
Format                           : AC-3
Format/Info                      : Audio Coding 3
Mode extension                   : CM (complete main)
Codec ID                         : 2000
Duration                         : 1h 40mn
Bit rate mode                    : Constant
Bit rate                         : 448 Kbps
Channel(s)                       : 6 channels
Channel positions                : Front: L C R, Side: L R, LFE
Sampling rate                    : 48.0 KHz
Bit depth                        : 16 bits
Stream size                      : 322 MiB (23%)
Alignment                        : Split accross interleaves
Interleave, duration             : 42 ms (1.00 video frame)
Interleave, preload duration     : 500 ms

::NOTES::::::::: 
Presents Red Riding Hood BRRIP.

Enjoy. //iNK

:: Got something we might be interested in? contact us: epic@hushmail.me ::

::::::::::::::::::::::::::::::::  RESPECT  :::::::::::::::::::::::::::::::::
IMAGiNE, Rx, FLAWL3SS, ViSiON, T0XiC, HiVE, bobwhite & All Our Friends!

                 ::::::::::::::::  We Are  ::::::::::::::::  
               :::::: Surpassing the usual or ordinary ::::::
::::::::::::::::::    Heroic and impressive in quality    ::::::::::::::::::     
 ::::::::::::::::::::::::::::::::   EP1C   ::::::::::::::::::::::::::::::::

[img]http://noob.hu/2011/05/27/vlcsnap-2011-05-27-07h55m51s232.png[/img]
[img]http://noob.hu/2011/05/27/vlcsnap-2011-05-27-07h56m19s0.png[/img]
[img]http://noob.hu/2011/05/27/vlcsnap-2011-05-27-07h57m17s71.png[/img]
[img]http://noob.hu/2011/05/27/vlcsnap-2011-05-27-07h57m06s202.png[/img]
[img]http://noob.hu/2011/05/27/vlcsnap-2011-05-27-07h57m35s255.png[/img]